<svg width="186" height="39" viewBox="0 0 186 39" fill="none" xmlns="http://www.w3.org/2000/svg">
<path d="M141.497 6.56393C143.309 6.56393 144.779 5.09454 144.779 3.28197C144.779 1.46939 143.309 0 141.497 0C139.684 0 138.215 1.46939 138.215 3.28197C138.215 5.09454 139.684 6.56393 141.497 6.56393Z" fill="#0053F1"/>
<path d="M144.093 9.13037H138.904V29.8929H144.093V9.13037Z" fill="#0053F1"/>
<path d="M88.0768 9.13037L93.6497 23.7371C95.5157 18.8686 97.3832 13.9988 99.2506 9.13037C102.854 9.13596 106.457 9.14295 110.062 9.14854L114.019 22.9669C115.624 18.3543 117.229 13.7416 118.833 9.13037H123.323C124.898 13.743 126.474 18.3557 128.05 22.9683L131.991 9.13037H137.371C135.186 16.0507 133.003 22.9725 130.818 29.8929H125.604C124.05 25.1502 122.494 20.4048 120.941 15.6622C119.412 20.4048 117.884 25.1502 116.355 29.8929H111.086C108.99 23.1654 106.895 16.4365 104.8 9.70765L92.8837 38.3396H87.4073L91.0135 30.0131L82.2188 9.13037H88.0796H88.0768Z" fill="#0053F1"/>
<path d="M57.545 0.482422V29.8929H52.2363V27.1784C52.2209 27.1812 52.1971 27.1868 52.1692 27.1952C51.9665 27.2651 51.8756 27.4776 51.8589 27.4929C42.5008 35.9606 30.8098 23.2926 37.1711 13.3741C40.6026 8.02339 47.7271 6.97646 52.2391 11.6282V0.482422H57.545ZM45.6584 13.2161C38.8862 14.1247 39.3181 25.9847 46.7528 25.8548C54.537 25.7192 54.4531 12.0364 45.6584 13.2161Z" fill="#0053F1"/>
<path d="M75.6773 29.8928C75.6773 28.9297 75.6773 27.9652 75.6787 27.0022C75.3153 27.3013 75.1168 27.7108 74.7212 28.0603C69.5411 32.6212 62.0183 29.7362 59.7748 23.5958C56.1155 13.5766 67.334 3.52662 75.6787 11.6295V9.13168H80.986V29.8942H75.6773V29.8928ZM69.2951 13.216C62.7158 14.1818 62.9897 26.0153 70.3671 25.835C78.2296 25.6435 77.7641 11.9747 69.2951 13.216Z" fill="#0053F1"/>
<path d="M185.559 20.6593H170.419C170.449 26.1567 178.452 27.9501 180.699 22.9656C182.226 22.967 183.752 22.9712 185.278 22.9726C184.229 26.5593 181.369 29.2933 177.816 30.1054C173.919 30.9958 169.964 29.1899 167.822 26.6194C161.146 18.6088 168.253 6.42162 178.682 9.03265C180.787 9.55961 183.189 11.4019 184.363 13.5293C185.319 15.2611 185.53 17.0754 185.598 17.7156C185.727 18.9121 185.657 19.9283 185.558 20.6579L185.559 20.6593ZM180.794 16.8168C179.698 11.7905 171.807 11.9218 170.609 16.8168H180.794Z" fill="#0053F1"/>
<path d="M163.693 15.2791H158.696C158.71 11.8588 150.918 11.8854 151.74 15.2051C151.912 15.897 152.252 16.122 152.875 16.3918C156.546 17.9768 163.447 17.0236 164.218 22.7265C165.539 32.4801 146.337 32.8952 146.014 23.3499H150.53C151.462 25.9721 153.989 26.2894 156.484 26.0378C159.09 25.775 160.369 23.41 157.733 22.2946C154.543 20.9457 148.963 21.2225 146.967 17.879C144.62 13.9471 147.583 9.96901 151.584 9.03111C156.322 7.91988 163.749 9.11498 163.693 15.2777V15.2791Z" fill="#0053F1"/>
<path d="M25.5757 16.972L21.2328 9.45065C20.4473 8.09062 18.9964 7.25195 17.4253 7.25195H8.73956C7.16847 7.25195 5.71758 8.09062 4.93203 9.45065L0.58916 16.972C-0.196387 18.3321 -0.196387 20.008 0.58916 21.3694L4.93203 28.8908C5.71758 30.2509 7.16847 31.0895 8.73956 31.0895H17.4253C18.9964 31.0895 20.4473 30.2509 21.2328 28.8908L25.5757 21.3694C26.3613 20.0094 26.3613 18.3335 25.5757 16.972ZM22.8696 20.5685C22.8612 20.5881 22.8556 20.6077 22.8459 20.6272C22.8319 20.658 22.8137 20.6873 22.7983 20.7167C22.7983 20.7195 22.7955 20.7223 22.7941 20.7237C22.7704 20.7698 22.7466 20.8173 22.7201 20.8634L21.0008 23.8421L19.3696 26.6656C18.7644 27.7153 17.6448 28.3611 16.4329 28.3611H9.73477C8.52291 28.3611 7.40329 27.7153 6.79806 26.6656L3.449 20.8648C2.84376 19.8151 2.84376 18.5236 3.449 17.4738L6.79806 11.6731C7.25653 10.8778 8.01132 10.3159 8.87654 10.088C9.33501 9.92868 9.82283 9.84202 10.3232 9.84202H12.0635C12.6268 9.84202 13.0838 10.2991 13.0838 10.8624V18.1518C13.0838 18.7137 13.5409 19.1693 14.1042 19.1693H15.6879H19.9804L21.9247 19.1679C22.653 19.1679 23.138 19.9046 22.871 20.5671L22.8696 20.5685Z" fill="#0053F1"/>
</svg>
