<svg width="176" height="58" viewBox="0 0 176 58" fill="none" xmlns="http://www.w3.org/2000/svg">
<path d="M174.777 39.3575C174.478 39.3575 174.205 39.5511 174.064 39.9559C172.26 45.1039 169.822 48.1663 167.816 48.1663C166.663 48.1663 166.197 46.8815 166.197 44.8663C166.197 39.8239 169.215 29.1319 170.738 24.2567C170.914 23.6671 171.028 23.1391 171.028 22.6903C171.028 21.2735 170.254 20.5783 168.335 20.5783C166.267 20.5783 164.041 21.3879 161.876 25.1807C161.128 21.8367 158.866 20.3759 155.707 20.3759C152.055 20.3759 148.526 22.7255 145.622 26.5359C142.718 30.3463 139.304 31.5959 136.734 30.9799C138.582 26.4567 139.269 23.0775 139.269 20.5695C139.269 16.6359 137.324 14.2599 134.182 14.2599C129.404 14.2599 126.65 18.8183 126.65 23.6143C126.65 27.3191 128.33 31.1295 132.026 32.9775C128.929 39.9823 124.406 46.3183 122.69 46.3183C120.472 46.3183 119.821 35.4679 119.944 27.7063C120.023 23.2535 120.393 23.0247 120.393 21.6783C120.393 20.9039 119.891 20.3759 117.876 20.3759C113.177 20.3759 111.725 24.3535 111.505 28.9207C111.434 30.6564 111.162 32.3779 110.695 34.0511C108.733 41.0559 104.685 46.3711 102.045 46.3711C100.822 46.3711 100.487 45.1479 100.487 43.5463C100.487 38.5039 103.312 32.2031 103.312 26.8263C103.312 22.8751 101.578 20.3759 98.3136 20.3759C94.468 20.3759 89.3816 24.9519 84.568 33.5231C86.152 26.9583 86.8032 20.6047 82.1128 20.6047C81.0953 20.6199 80.0963 20.8795 79.2 21.3615C78.8991 21.5022 78.6475 21.7302 78.478 22.0159C78.3085 22.3015 78.2289 22.6316 78.2496 22.9631C78.6984 29.9503 72.6176 47.8495 66.8536 47.8495C65.8064 47.8495 65.296 46.7143 65.296 44.8839C65.296 39.8327 68.3056 29.1671 69.8192 24.2831C70.0128 23.6495 70.1184 23.1039 70.1184 22.6287C70.1184 21.2911 69.2912 20.6047 67.4168 20.6047C65.3576 20.6047 63.1224 21.3879 60.9664 25.1807C60.2096 21.8367 57.948 20.3759 54.7888 20.3759C49.6056 20.3759 43.8152 25.8583 41.272 33.0039C37.8664 42.5431 31.0024 51.7567 21.7624 51.7567C13.376 51.7567 8.9496 44.7783 8.9496 33.7519C8.9496 17.8327 20.636 4.82632 29.304 4.82632C33.4488 4.82632 35.4288 7.46632 35.4288 11.5143C35.4288 16.4159 32.692 18.6951 32.692 20.5607C32.692 21.1327 33.1672 21.6959 34.1088 21.6959C37.8752 21.6959 42.3104 17.2695 42.3104 11.2327C42.3104 5.19592 37.4088 0.77832 28.7408 0.77832C14.4144 0.77832 0 15.1927 0 33.6639C0 48.3599 7.2512 57.2215 19.7912 57.2215C28.3448 57.2215 35.816 50.5687 39.8464 42.8071C40.304 49.2399 43.2256 52.6015 47.6784 52.6015C51.6384 52.6015 54.8416 50.2431 57.288 46.0983C58.2296 50.4367 60.7288 52.5575 63.976 52.5575C67.6984 52.5575 70.8136 50.1991 73.7792 45.8167C73.7352 49.2575 74.5184 52.4959 77.5016 52.4959C78.9096 52.4959 80.5904 52.1703 80.8896 50.9383C84.0312 37.9495 91.7928 27.3455 94.1688 27.3455C94.8728 27.3455 95.0664 28.0231 95.0664 28.8239C95.0664 32.3527 92.576 39.5863 92.576 44.2063C92.576 49.1959 94.6968 52.4959 99.0792 52.4959C103.937 52.4959 108.874 46.5471 112.165 37.8527C113.194 45.9751 115.421 52.5311 118.906 52.5311C123.182 52.5311 130.777 43.5287 135.379 33.9983C137.183 34.2271 139.894 34.1655 142.498 32.3263C141.39 35.1335 140.738 38.2047 140.738 41.2759C140.738 50.1199 144.962 52.6015 148.597 52.6015C152.548 52.6015 155.751 50.2431 158.206 46.0983C159.016 49.8383 161.084 52.5487 164.886 52.5487C170.834 52.5487 176 46.4679 176 41.4783C176 40.1583 175.437 39.3575 174.777 39.3575ZM51.304 47.6999C48.9016 47.6999 47.96 45.2799 47.96 41.6719C47.96 35.4063 52.2456 24.9431 56.7776 24.9431C58.7576 24.9431 59.5056 27.2751 59.5056 30.1263C59.5056 36.4887 55.4312 47.6999 51.304 47.6999ZM133.593 28.9999C132.158 27.2927 131.639 24.9695 131.639 22.9015C131.639 20.3495 132.572 18.1935 133.69 18.1935C134.807 18.1935 135.15 19.2935 135.15 20.8247C135.15 23.3855 134.235 27.1255 133.593 28.9999ZM152.222 47.6999C149.82 47.6999 148.878 44.9191 148.878 41.6719C148.878 35.6263 153.164 24.9431 157.731 24.9431C159.711 24.9431 160.415 27.2575 160.415 30.1263C160.415 36.4887 156.411 47.6999 152.222 47.6999Z" fill="url(#paint0_linear_50_230)"/>
<defs>
<linearGradient id="paint0_linear_50_230" x1="2.52703" y1="15.7175" x2="176" y2="28.9999" gradientUnits="userSpaceOnUse">
<stop stop-color="#54BECB"/>
<stop offset="0.3125" stop-color="#469FD2"/>
<stop offset="1" stop-color="#713DDF"/>
</linearGradient>
</defs>
</svg>
