<svg width="21" height="20" viewBox="0 0 21 20" fill="none" xmlns="http://www.w3.org/2000/svg">
<path d="M19.7395 10.2085C19.7395 9.5585 19.6811 8.9335 19.5728 8.3335H10.9395V11.8835H15.8728C15.6561 13.0252 15.0061 13.9918 14.0311 14.6418V16.9502H17.0061C18.7395 15.3502 19.7395 13.0002 19.7395 10.2085Z" fill="white"/>
<path d="M10.9392 19.1667C13.4142 19.1667 15.4892 18.35 17.0059 16.95L14.0309 14.6417C13.2142 15.1917 12.1725 15.525 10.9392 15.525C8.55586 15.525 6.53086 13.9167 5.80586 11.75H2.75586V14.1167C4.26419 17.1083 7.35586 19.1667 10.9392 19.1667Z" fill="white"/>
<path d="M5.80677 11.7416C5.62344 11.1916 5.5151 10.6083 5.5151 9.99993C5.5151 9.3916 5.62344 8.80827 5.80677 8.25827V5.8916H2.75677C2.13177 7.12493 1.77344 8.5166 1.77344 9.99993C1.77344 11.4833 2.13177 12.8749 2.75677 14.1083L5.13177 12.2583L5.80677 11.7416Z" fill="white"/>
<path d="M10.9392 4.4835C12.2892 4.4835 13.4892 4.95016 14.4475 5.85016L17.0725 3.22516C15.4809 1.74183 13.4142 0.833496 10.9392 0.833496C7.35586 0.833496 4.26419 2.89183 2.75586 5.89183L5.80586 8.2585C6.53086 6.09183 8.55586 4.4835 10.9392 4.4835Z" fill="white"/>
</svg>
