<svg width="50" height="50" viewBox="0 0 50 50" fill="none" xmlns="http://www.w3.org/2000/svg">
<path d="M38.1575 11.8423H11.8418V38.158H38.1575V11.8423Z" fill="white"/>
<path d="M38.1582 49.9998L50.0003 38.1577H38.1582V49.9998Z" fill="#EA4335"/>
<path d="M50.0003 11.8423H38.1582V38.158H50.0003V11.8423Z" fill="#FBBC04"/>
<path d="M38.1575 38.1577H11.8418V49.9998H38.1575V38.1577Z" fill="#34A853"/>
<path d="M0 38.1577V46.0524C0 48.2333 1.76644 49.9998 3.94735 49.9998H11.8421V38.1577H0Z" fill="#188038"/>
<path d="M50.0003 11.8421V3.94735C50.0003 1.76644 48.2338 0 46.0529 0H38.1582V11.8421H50.0003Z" fill="#1967D2"/>
<path d="M38.1577 0H3.94735C1.76644 0 0 1.76644 0 3.94735V38.1577H11.8421V11.8421H38.1577V0Z" fill="#4285F4"/>
<path d="M17.2393 32.257C16.2558 31.5925 15.5748 30.6221 15.2031 29.3392L17.486 28.3984C17.6932 29.1879 18.0551 29.7997 18.5715 30.234C19.0847 30.6682 19.7097 30.882 20.4399 30.882C21.1867 30.882 21.8281 30.655 22.3643 30.2011C22.9005 29.7471 23.1702 29.1682 23.1702 28.4675C23.1702 27.7504 22.8873 27.1649 22.3215 26.7109C21.7557 26.257 21.0452 26.03 20.1965 26.03H18.8775V23.7702H20.0617C20.7919 23.7702 21.407 23.5728 21.907 23.1781C22.407 22.7833 22.657 22.2439 22.657 21.5564C22.657 20.9445 22.4334 20.4577 21.986 20.0926C21.5386 19.7274 20.9728 19.5432 20.2853 19.5432C19.6143 19.5432 19.0814 19.7208 18.6867 20.0794C18.2922 20.4389 17.9956 20.8928 17.8248 21.3985L15.565 20.4577C15.8643 19.609 16.4136 18.859 17.2196 18.211C18.0255 17.563 19.0551 17.2373 20.3051 17.2373C21.2294 17.2373 22.0616 17.4149 22.7985 17.7735C23.5353 18.132 24.1143 18.6287 24.532 19.2603C24.9498 19.8952 25.157 20.6057 25.157 21.3952C25.157 22.2011 24.9629 22.882 24.5748 23.4412C24.1866 24.0004 23.7097 24.4281 23.1439 24.7274V24.8623C23.8744 25.1635 24.509 25.6582 24.9794 26.2932C25.4564 26.9346 25.6965 27.7011 25.6965 28.5958C25.6965 29.4905 25.4695 30.2899 25.0156 30.9905C24.5616 31.6912 23.9333 32.2438 23.1373 32.6451C22.338 33.0464 21.4399 33.2504 20.4432 33.2504C19.2886 33.2537 18.2228 32.9214 17.2393 32.257ZM31.2623 20.9281L28.7557 22.7406L27.5024 20.8393L31.9991 17.5959H33.7228V32.8951H31.2623V20.9281Z" fill="#4285F4"/>
</svg>
